<?xml version="1.0" standalone="no"?>
<!DOCTYPE svg PUBLIC "-//W3C//DTD SVG 20010904//EN"
 "http://www.w3.org/TR/2001/REC-SVG-20010904/DTD/svg10.dtd">
<svg version="1.0" xmlns="http://www.w3.org/2000/svg"
 width="300.000000pt" height="300.000000pt" viewBox="0 0 300.000000 300.000000"
 preserveAspectRatio="xMidYMid meet">
<metadata>
Created by potrace 1.11, written by Peter Selinger 2001-2013
</metadata>
<g transform="translate(0.000000,300.000000) scale(0.100000,-0.100000)"
fill="#000000" stroke="none">
<path d="M1444 2864 c-33 -26 -73 -59 -90 -73 -17 -14 -50 -42 -75 -63 -24
-20 -57 -48 -74 -62 -34 -29 -42 -29 -175 3 -47 11 -98 23 -115 25 -16 3 -43
10 -60 14 -16 5 -43 9 -60 8 -32 -1 -21 23 -125 -271 -17 -49 -37 -96 -43
-102 -7 -7 -48 -24 -92 -37 -44 -13 -129 -39 -188 -57 l-109 -34 7 -43 c4 -24
8 -51 10 -60 2 -10 17 -84 34 -166 l30 -149 -139 -139 c-77 -77 -140 -145
-140 -150 0 -5 63 -71 139 -146 115 -114 139 -141 136 -162 -5 -35 -15 -92
-20 -110 -2 -8 -7 -35 -10 -60 -4 -24 -8 -47 -10 -50 -2 -3 -6 -26 -10 -50 -3
-25 -10 -59 -14 -76 -5 -17 -6 -36 -2 -42 3 -5 49 -26 101 -47 301 -116 276
-103 295 -154 9 -25 32 -86 50 -136 18 -49 41 -111 50 -137 20 -55 21 -55 124
-33 39 8 85 17 103 20 18 3 53 10 78 15 59 13 101 21 121 23 9 1 42 -21 75
-49 147 -129 240 -204 251 -204 6 0 18 6 25 13 7 6 49 44 93 83 76 67 110 97
165 144 17 14 32 19 48 15 47 -12 329 -74 359 -79 34 -7 21 -36 128 280 l38
112 41 12 c23 7 59 19 81 27 22 8 40 14 40 13 0 -8 212 65 221 76 8 10 8 27
-2 65 -7 28 -16 69 -19 92 -4 23 -8 44 -10 47 -2 3 -6 24 -9 46 -4 23 -11 56
-16 75 -16 54 -12 72 26 114 20 22 64 71 98 109 33 38 74 83 89 100 50 54 50
60 9 98 -20 19 -83 83 -140 143 -74 77 -102 112 -97 124 9 24 95 364 95 377 0
15 -20 22 -225 85 -93 28 -175 56 -181 61 -7 5 -14 19 -17 31 -3 12 -16 54
-30 92 -14 39 -40 108 -57 155 -17 46 -34 88 -39 93 -5 5 -84 -8 -175 -27
-235 -51 -227 -50 -256 -24 -14 13 -63 57 -110 98 -47 41 -87 77 -90 80 -3 3
-22 20 -41 38 l-36 33 -59 -47z"/>
</g>
</svg>
